<?xml version="1.0" standalone="no"?>
<!DOCTYPE svg PUBLIC "-//W3C//DTD SVG 20010904//EN"
 "http://www.w3.org/TR/2001/REC-SVG-20010904/DTD/svg10.dtd">
<svg version="1.0" xmlns="http://www.w3.org/2000/svg"
 width="300.000000pt" height="300.000000pt" viewBox="0 0 300.000000 300.000000"
 preserveAspectRatio="xMidYMid meet">
<metadata>
Created by potrace 1.14, written by Peter Selinger 2001-2017
</metadata>
<g transform="translate(0.000000,300.000000) scale(0.100000,-0.100000)"
fill="#000000" stroke="none">
<path d="M1472 2878 c-14 -74 -20 -135 -18 -214 1 -62 -1 -120 -5 -130 -7 -18
-8 -18 -9 1 -4 88 -12 139 -29 195 l-19 65 -1 -97 c-1 -53 -4 -104 -7 -113
-15 -39 -134 271 -134 349 0 9 -3 16 -7 16 -17 0 -5 -302 13 -331 2 -4 6 -24
10 -45 3 -22 7 -49 9 -62 2 -12 0 -20 -4 -17 -8 4 -14 26 -27 96 -5 22 -74
166 -74 153 0 -6 5 -36 11 -65 13 -67 19 -153 9 -142 -56 63 -119 171 -170
288 -28 64 -30 66 -26 30 15 -123 33 -209 52 -245 7 -15 21 -53 33 -85 11 -33
23 -69 27 -80 l6 -20 -14 20 c-8 11 -20 36 -28 55 -7 19 -34 64 -58 100 -50
72 -70 96 -55 65 27 -53 68 -195 57 -195 -3 0 -37 32 -75 70 -59 60 -117 138
-168 225 -10 17 -11 15 -5 -15 3 -19 9 -39 12 -45 4 -5 7 -16 8 -24 6 -34 52
-132 91 -192 40 -61 79 -139 69 -139 -2 0 -18 23 -36 50 -33 52 -61 83 -120
135 l-34 30 17 -27 c37 -59 70 -122 77 -148 l8 -28 -62 41 c-33 23 -103 83
-153 133 -51 51 -93 90 -93 87 0 -15 106 -194 129 -219 96 -104 173 -210 91
-126 -23 23 -58 55 -78 70 -21 15 -39 29 -42 32 -10 10 -52 31 -55 28 -2 -2
13 -21 34 -43 38 -41 93 -117 87 -122 -1 -2 -26 8 -54 22 -29 14 -56 25 -60
25 -9 0 -133 78 -142 89 -6 7 -69 54 -89 66 -17 10 83 -119 124 -160 17 -17
57 -51 90 -77 59 -45 124 -109 95 -93 -26 15 -85 60 -88 68 -2 4 -8 7 -13 7
-9 0 -87 33 -121 51 -12 6 -18 6 -18 -1 0 -5 4 -10 9 -10 15 0 129 -98 142
-121 6 -12 7 -19 2 -16 -5 4 -23 9 -40 11 -64 12 -162 47 -248 90 l-90 46 70
-66 c60 -56 101 -86 185 -133 8 -5 32 -17 53 -27 21 -11 46 -27 55 -38 14 -15
9 -14 -33 6 -55 28 -194 72 -202 65 -2 -3 24 -21 59 -41 35 -20 74 -45 88 -57
l25 -20 -80 5 c-96 6 -167 20 -257 51 -38 13 -66 19 -63 15 14 -23 188 -114
275 -144 102 -36 145 -55 138 -61 -2 -2 -29 5 -61 15 -31 10 -94 21 -139 24
l-83 6 65 -24 c111 -42 129 -50 134 -61 2 -6 -11 -11 -33 -12 -20 -1 -70 -4
-111 -6 -41 -2 -106 0 -144 5 -75 10 -116 7 -81 -6 11 -5 48 -19 82 -32 74
-28 126 -41 206 -49 32 -4 74 -13 95 -20 36 -14 36 -14 -28 -8 -36 3 -69 6
-75 6 -28 -1 -139 -14 -142 -17 -2 -2 20 -7 49 -11 74 -10 82 -11 125 -26 l38
-12 -40 -14 c-76 -27 -163 -43 -261 -49 -55 -3 -100 -7 -102 -9 -2 -1 45 -12
104 -23 75 -14 140 -20 213 -18 58 1 117 -1 131 -5 21 -6 19 -7 -15 -9 -71 -2
-119 -10 -185 -30 l-65 -19 88 -2 c114 -2 124 -3 131 -10 5 -5 -91 -54 -159
-80 -40 -15 -176 -49 -198 -49 -10 0 -16 -4 -13 -8 7 -12 245 -7 294 7 23 6
61 14 83 16 23 2 51 7 63 11 14 4 18 3 11 -4 -5 -6 -41 -18 -80 -27 -38 -8
-78 -23 -88 -33 -11 -9 -21 -16 -23 -14 -5 3 -64 -27 -64 -32 0 -3 15 0 33 4
57 16 91 22 140 24 l49 3 -24 -19 c-89 -69 -221 -142 -328 -181 -17 -6 87 1
110 8 8 2 34 7 57 10 40 5 71 16 148 50 45 20 136 44 130 35 -3 -5 -21 -14
-41 -20 -47 -16 -69 -28 -132 -74 -50 -36 -65 -59 -25 -38 25 14 143 52 160
52 25 0 -132 -146 -216 -201 -44 -29 -79 -54 -78 -56 4 -3 113 31 167 53 25
10 75 37 112 61 64 40 138 77 138 68 0 -3 -24 -20 -53 -38 -55 -35 -81 -58
-132 -117 l-30 -34 30 19 c53 34 158 86 162 81 11 -11 -105 -161 -178 -230
-44 -42 -77 -76 -74 -76 4 0 41 19 83 42 79 42 130 78 194 136 42 38 99 82
107 82 3 0 -13 -18 -36 -40 -45 -43 -112 -129 -133 -170 -12 -25 -12 -25 7 -5
50 50 153 128 160 121 2 -1 -3 -16 -11 -32 -8 -16 -26 -56 -42 -89 -15 -33
-52 -94 -82 -135 -31 -41 -60 -82 -66 -90 -9 -13 3 -4 50 35 7 6 25 20 41 32
51 40 108 97 145 148 20 28 51 64 69 80 35 33 31 19 -13 -37 -34 -44 -110
-207 -78 -168 48 58 124 140 131 140 17 0 -45 -191 -91 -285 l-50 -100 48 50
c76 81 116 136 153 208 19 37 46 82 61 100 l28 32 -31 -60 c-17 -33 -39 -93
-50 -133 -21 -75 -21 -106 0 -55 13 31 23 48 65 110 16 24 31 43 33 43 5 0 -3
-122 -11 -185 -5 -32 -36 -141 -55 -187 -16 -43 -5 -33 31 25 18 29 39 62 46
73 7 10 19 35 28 54 8 19 19 44 24 55 5 11 18 50 30 86 29 91 56 127 30 40
-11 -35 -22 -101 -26 -145 -6 -77 -1 -99 10 -46 10 48 72 186 76 170 4 -13 10
-82 13 -150 4 -65 0 -120 -17 -233 -3 -16 -2 -26 2 -22 4 4 7 10 7 13 1 4 6
16 12 27 6 11 11 23 12 28 0 4 8 24 17 45 8 20 17 45 19 55 2 9 6 21 9 25 4 7
12 50 21 124 2 18 11 58 20 88 l15 55 -6 -65 c-9 -84 -9 -104 0 -169 7 -62 16
-79 17 -35 0 16 2 36 4 44 2 8 6 28 9 43 14 76 36 114 42 74 1 -7 9 -37 18
-67 24 -82 29 -122 36 -270 l2 -45 9 35 c29 116 37 182 35 289 -1 58 1 117 5
131 7 23 7 22 9 -10 2 -77 12 -138 30 -190 l19 -55 0 85 c1 47 4 96 8 109 5
21 10 16 40 -45 33 -67 60 -139 69 -179 23 -102 32 -138 34 -125 9 57 4 217
-7 275 -25 125 -30 165 -22 165 4 0 13 -26 19 -57 11 -52 80 -213 80 -187 0 6
-4 35 -10 65 -21 117 -20 172 4 129 6 -11 33 -51 59 -90 27 -38 66 -112 88
-162 l39 -93 -6 55 c-10 87 -12 99 -25 153 -6 29 -17 63 -25 77 -7 15 -21 53
-33 85 -11 33 -23 69 -27 79 -5 12 -4 17 3 13 5 -4 18 -28 28 -54 17 -45 94
-165 114 -177 5 -4 -3 24 -19 62 -15 37 -31 84 -35 106 l-6 39 74 -75 c40 -41
95 -108 122 -149 54 -83 72 -105 61 -74 -4 11 -9 27 -11 35 -15 69 -54 155
-117 257 -62 102 -78 157 -19 66 30 -48 85 -109 131 -148 l24 -20 -19 30 c-34
53 -86 158 -81 162 3 3 38 -18 78 -46 69 -47 145 -117 203 -186 14 -16 25 -27
25 -24 0 8 -52 113 -59 119 -3 3 -14 21 -24 41 -10 19 -47 67 -82 105 -35 38
-71 83 -81 99 -13 24 -4 18 42 -25 32 -30 61 -58 64 -61 8 -9 89 -59 96 -59 3
0 -16 24 -43 54 -26 30 -56 69 -66 86 l-19 31 35 -15 c88 -36 173 -84 243
-138 43 -32 79 -58 81 -58 8 0 -112 147 -146 179 -20 18 -58 51 -86 71 -50 37
-114 101 -85 85 8 -5 35 -23 60 -41 25 -17 68 -42 95 -54 28 -12 58 -26 68
-31 11 -6 17 -6 17 1 0 5 -4 10 -9 10 -14 0 -130 100 -142 122 -6 11 -7 18 -2
15 5 -4 23 -9 40 -11 67 -12 172 -50 253 -92 l85 -45 -56 53 c-85 81 -99 91
-185 138 -92 50 -153 90 -139 90 6 0 30 -11 55 -24 50 -27 188 -71 196 -63 3
2 -23 21 -58 41 -35 19 -74 45 -88 56 l-25 21 87 -6 c105 -6 165 -18 253 -50
36 -13 65 -23 65 -21 0 4 -96 68 -140 94 -19 11 -75 34 -125 51 -93 33 -155
59 -155 66 0 6 29 -1 76 -18 49 -18 225 -32 184 -16 -14 6 -32 12 -40 14 -48
10 -157 64 -135 66 131 15 209 16 305 4 52 -7 96 -11 98 -10 3 3 -117 52 -173
70 -57 18 -87 24 -152 32 -32 3 -74 12 -93 19 -34 13 -33 14 25 8 66 -7 119
-7 180 2 51 7 58 14 17 15 -18 1 -35 2 -39 3 -5 1 -28 6 -53 10 -25 5 -49 12
-55 16 -5 4 -19 10 -30 12 -12 2 6 11 45 21 128 35 145 37 254 43 49 2 91 5
93 7 1 2 -39 12 -90 22 -62 13 -137 20 -229 20 -76 1 -140 4 -144 8 -6 6 72
12 98 8 12 -2 162 40 170 48 4 3 -36 5 -89 4 -129 -2 -139 4 -67 38 67 32 132
59 154 64 88 20 162 42 155 46 -13 7 -233 3 -263 -4 -13 -4 -32 -9 -42 -12 -9
-3 -35 -8 -56 -10 -22 -2 -49 -7 -62 -9 -12 -3 -20 -1 -17 4 3 5 29 14 58 20
28 6 86 26 127 46 74 35 72 37 -20 19 -61 -12 -106 -14 -120 -5 -11 7 -11 10
-2 10 7 0 38 19 69 42 60 43 182 107 246 128 47 15 48 23 2 16 -19 -3 -59 -9
-87 -12 -49 -6 -178 -42 -223 -64 -32 -15 -109 -39 -113 -36 -2 2 35 22 81 44
46 23 101 57 123 77 21 20 35 35 29 32 -92 -43 -182 -73 -192 -63 -10 10 126
136 208 191 98 66 102 70 69 60 -95 -28 -185 -66 -262 -112 -123 -74 -194
-101 -89 -34 50 32 95 73 141 126 l25 29 -30 -19 c-54 -34 -158 -86 -162 -81
-11 11 104 159 178 231 50 48 71 74 57 69 -13 -3 -25 -9 -28 -13 -3 -3 -30
-19 -60 -35 -57 -30 -111 -67 -142 -98 -28 -28 -128 -108 -136 -108 -3 0 19
26 49 58 49 50 97 113 124 162 4 8 -12 -4 -36 -26 -48 -45 -130 -106 -136
-101 -2 2 3 17 11 33 8 16 22 47 32 69 25 56 80 142 126 198 22 26 37 47 33
47 -8 0 -108 -78 -156 -122 -19 -18 -56 -60 -81 -93 -46 -60 -98 -114 -98
-102 0 4 16 28 37 54 37 49 95 164 86 173 -2 3 -14 -8 -26 -25 -36 -49 -79
-95 -98 -105 -16 -9 -17 -7 -8 23 5 17 12 45 15 62 7 40 57 163 94 232 l31 58
-70 -75 c-39 -41 -85 -101 -103 -133 -83 -145 -102 -177 -105 -173 -2 2 9 32
25 67 37 81 53 129 47 139 -3 5 -1 11 5 15 5 3 10 16 9 28 0 15 -2 17 -6 7 -3
-8 -9 -17 -12 -20 -3 -3 -17 -25 -29 -50 -13 -25 -35 -58 -49 -75 l-24 -30 6
85 c7 111 11 135 40 222 20 62 25 92 11 77 -30 -34 -103 -179 -131 -262 -21
-58 -43 -114 -51 -124 -12 -16 -12 -13 -3 17 6 19 15 49 19 65 5 17 11 66 14
110 l5 80 -31 -85 c-16 -47 -36 -94 -44 -105 -14 -19 -14 -19 -15 0 0 11 -3
29 -5 40 -11 45 -10 192 1 261 6 41 9 74 6 74 -7 0 -25 -39 -42 -90 -7 -19
-15 -39 -19 -45 -9 -12 -29 -102 -36 -165 -3 -24 -12 -67 -20 -95 l-14 -50 6
70 c4 39 7 75 7 80 -1 27 -14 139 -17 142 -2 2 -7 -22 -11 -53 -9 -76 -34
-156 -45 -149 -6 4 -10 17 -10 29 0 13 -7 40 -15 60 -8 20 -13 36 -10 36 2 0
1 10 -4 23 -5 12 -12 72 -16 132 -3 61 -8 111 -9 113 -2 1 -12 -44 -24 -100z"/>
</g>
</svg>
